<svg width="128" height="64" viewBox="0 0 128 64" fill="none" xmlns="http://www.w3.org/2000/svg">
<rect x="24" y="12" width="80" height="40" fill="#1976D2"/>
<rect x="24" y="12" width="80" height="20" fill="#2196F3"/>
<rect x="24" y="31" width="80" height="20" fill="white"/>
<g filter="url(#filter0_d)">
<path d="M45.0806 17.1797L47.3364 23.1738L49.5869 17.1797H51.3433V25H49.9897V22.4219L50.124 18.9736L47.8145 25H46.8423L44.5381 18.979L44.6724 22.4219V25H43.3188V17.1797H45.0806ZM58.6787 23.1792H55.6494L55.0156 25H53.603L56.5571 17.1797H57.7764L60.7358 25H59.3179L58.6787 23.1792ZM56.0308 22.0835H58.2974L57.1641 18.8394L56.0308 22.0835ZM67.8833 18.2754H65.4448V25H64.0967V18.2754H61.6797V17.1797H67.8833V18.2754ZM75.9814 22.4541C75.9027 23.2884 75.5947 23.9401 75.0576 24.4092C74.5205 24.8747 73.8062 25.1074 72.9146 25.1074C72.2915 25.1074 71.7419 24.9606 71.2656 24.667C70.793 24.3698 70.4277 23.9491 70.1699 23.4048C69.9121 22.8605 69.7778 22.2285 69.7671 21.5088V20.7783C69.7671 20.0407 69.8978 19.3908 70.1592 18.8286C70.4206 18.2664 70.7948 17.8332 71.2817 17.5288C71.7723 17.2244 72.3381 17.0723 72.979 17.0723C73.842 17.0723 74.5366 17.3068 75.063 17.7759C75.5894 18.245 75.8955 18.9074 75.9814 19.7632H74.6279C74.5635 19.201 74.3988 18.7964 74.1338 18.5493C73.8724 18.2987 73.4875 18.1733 72.979 18.1733C72.3882 18.1733 71.9334 18.39 71.6147 18.8232C71.2996 19.2529 71.1385 19.8849 71.1313 20.7192V21.4121C71.1313 22.2572 71.2817 22.9017 71.5825 23.3457C71.8869 23.7897 72.3309 24.0117 72.9146 24.0117C73.4481 24.0117 73.8491 23.8918 74.1177 23.6519C74.3862 23.4119 74.5563 23.0127 74.6279 22.4541H75.9814ZM84.6597 25H83.3062V21.5249H79.8096V25H78.4507V17.1797H79.8096V20.4346H83.3062V17.1797H84.6597V25Z" fill="white"/>
</g>
<g filter="url(#filter1_d)">
<path d="M45.0806 37.1797L47.3364 43.1738L49.5869 37.1797H51.3433V45H49.9897V42.4219L50.124 38.9736L47.8145 45H46.8423L44.5381 38.979L44.6724 42.4219V45H43.3188V37.1797H45.0806ZM58.6787 43.1792H55.6494L55.0156 45H53.603L56.5571 37.1797H57.7764L60.7358 45H59.3179L58.6787 43.1792ZM56.0308 42.0835H58.2974L57.1641 38.8394L56.0308 42.0835ZM67.8833 38.2754H65.4448V45H64.0967V38.2754H61.6797V37.1797H67.8833V38.2754ZM75.9814 42.4541C75.9027 43.2884 75.5947 43.9401 75.0576 44.4092C74.5205 44.8747 73.8062 45.1074 72.9146 45.1074C72.2915 45.1074 71.7419 44.9606 71.2656 44.667C70.793 44.3698 70.4277 43.9491 70.1699 43.4048C69.9121 42.8605 69.7778 42.2285 69.7671 41.5088V40.7783C69.7671 40.0407 69.8978 39.3908 70.1592 38.8286C70.4206 38.2664 70.7948 37.8332 71.2817 37.5288C71.7723 37.2244 72.3381 37.0723 72.979 37.0723C73.842 37.0723 74.5366 37.3068 75.063 37.7759C75.5894 38.245 75.8955 38.9074 75.9814 39.7632H74.6279C74.5635 39.201 74.3988 38.7964 74.1338 38.5493C73.8724 38.2987 73.4875 38.1733 72.979 38.1733C72.3882 38.1733 71.9334 38.39 71.6147 38.8232C71.2996 39.2529 71.1385 39.8849 71.1313 40.7192V41.4121C71.1313 42.2572 71.2817 42.9017 71.5825 43.3457C71.8869 43.7897 72.3309 44.0117 72.9146 44.0117C73.4481 44.0117 73.8491 43.8918 74.1177 43.6519C74.3862 43.4119 74.5563 43.0127 74.6279 42.4541H75.9814ZM84.6597 45H83.3062V41.5249H79.8096V45H78.4507V37.1797H79.8096V40.4346H83.3062V37.1797H84.6597V45Z" fill="#2196F3"/>
</g>
<defs>
<filter id="filter0_d" x="39.3188" y="17.0723" width="49.3408" height="16.0352" filterUnits="userSpaceOnUse" color-interpolation-filters="sRGB">
<feFlood flood-opacity="0" result="BackgroundImageFix"/>
<feColorMatrix in="SourceAlpha" type="matrix" values="0 0 0 0 0 0 0 0 0 0 0 0 0 0 0 0 0 0 127 0"/>
<feOffset dy="4"/>
<feGaussianBlur stdDeviation="2"/>
<feColorMatrix type="matrix" values="0 0 0 0 0 0 0 0 0 0 0 0 0 0 0 0 0 0 0.25 0"/>
<feBlend mode="normal" in2="BackgroundImageFix" result="effect1_dropShadow"/>
<feBlend mode="normal" in="SourceGraphic" in2="effect1_dropShadow" result="shape"/>
</filter>
<filter id="filter1_d" x="39.3188" y="37.0723" width="49.3408" height="16.0352" filterUnits="userSpaceOnUse" color-interpolation-filters="sRGB">
<feFlood flood-opacity="0" result="BackgroundImageFix"/>
<feColorMatrix in="SourceAlpha" type="matrix" values="0 0 0 0 0 0 0 0 0 0 0 0 0 0 0 0 0 0 127 0"/>
<feOffset dy="4"/>
<feGaussianBlur stdDeviation="2"/>
<feColorMatrix type="matrix" values="0 0 0 0 0 0 0 0 0 0 0 0 0 0 0 0 0 0 0.25 0"/>
<feBlend mode="normal" in2="BackgroundImageFix" result="effect1_dropShadow"/>
<feBlend mode="normal" in="SourceGraphic" in2="effect1_dropShadow" result="shape"/>
</filter>
</defs>
</svg>
